<?xml version="1.0" encoding="utf-8" standalone="no"?>
<!DOCTYPE svg PUBLIC "-//W3C//DTD SVG 1.1//EN"
  "http://www.w3.org/Graphics/SVG/1.1/DTD/svg11.dtd">
<svg xmlns:xlink="http://www.w3.org/1999/xlink" width="360pt" height="720pt" viewBox="0 0 360 720" xmlns="http://www.w3.org/2000/svg" version="1.1">
 <metadata>
  <rdf:RDF xmlns:dc="http://purl.org/dc/elements/1.1/" xmlns:cc="http://creativecommons.org/ns#" xmlns:rdf="http://www.w3.org/1999/02/22-rdf-syntax-ns#">
   <cc:Work>
    <dc:type rdf:resource="http://purl.org/dc/dcmitype/StillImage"/>
    <dc:date>2023-04-02T02:02:30.400117</dc:date>
    <dc:format>image/svg+xml</dc:format>
    <dc:creator>
     <cc:Agent>
      <dc:title>Matplotlib v3.7.1, https://matplotlib.org/</dc:title>
     </cc:Agent>
    </dc:creator>
   </cc:Work>
  </rdf:RDF>
 </metadata>
 <defs>
  <style type="text/css">*{stroke-linejoin: round; stroke-linecap: butt}</style>
 </defs>
 <g id="figure_1">
  <g id="patch_1">
   <path d="M 0 720 
L 360 720 
L 360 0 
L 0 0 
z
" style="fill: #ffffff"/>
  </g>
  <g id="axes_1">
   <g id="patch_2">
    <path d="M 93.78 640.8 
L 275.22 640.8 
L 275.22 86.4 
L 93.78 86.4 
z
" style="fill: #ffffff"/>
   </g>
   <g id="patch_3">
    <path d="M 93.78 66.24 
L 275.22 66.24 
L 275.22 36 
L 93.78 36 
z
" style="fill: #e3e0d2"/>
   </g>
   <g id="patch_4">
    <path d="M 93.78 640.8 
L 174.42 640.8 
L 174.42 86.4 
L 93.78 86.4 
z
" style="fill: #e51951; opacity: 0.2"/>
   </g>
   <g id="patch_5">
    <path d="M 93.78 86.4 
L 174.42 86.4 
L 174.42 66.24 
L 93.78 66.24 
z
" style="fill: #efeee6"/>
   </g>
   <g id="patch_6">
    <path d="M 174.42 640.8 
L 234.9 640.8 
L 234.9 86.4 
L 174.42 86.4 
z
" style="fill: #f7a73b; opacity: 0.2"/>
   </g>
   <g id="patch_7">
    <path d="M 174.42 86.4 
L 234.9 86.4 
L 234.9 66.24 
L 174.42 66.24 
z
" style="fill: #efeee6"/>
   </g>
   <g id="patch_8">
    <path d="M 234.9 640.8 
L 275.22 640.8 
L 275.22 86.4 
L 234.9 86.4 
z
" style="fill: #0393e2; opacity: 0.2"/>
   </g>
   <g id="patch_9">
    <path d="M 234.9 86.4 
L 275.22 86.4 
L 275.22 66.24 
L 234.9 66.24 
z
" style="fill: #efeee6"/>
   </g>
   <g id="patch_10">
    <path d="M 13.14 640.8 
L 93.78 640.8 
L 93.78 540 
L 13.14 540 
z
" style="fill: #e3e0d2; opacity: 0.2"/>
   </g>
   <g id="patch_11">
    <path d="M -17.1 640.8 
L 13.14 640.8 
L 13.14 540 
L -17.1 540 
z
" style="fill: #e3e0d2"/>
   </g>
   <g id="patch_12">
    <path d="M 13.14 540 
L 93.78 540 
L 93.78 439.2 
L 13.14 439.2 
z
" style="fill: #efeee6; opacity: 0.2"/>
   </g>
   <g id="patch_13">
    <path d="M -17.1 540 
L 13.14 540 
L 13.14 439.2 
L -17.1 439.2 
z
" style="fill: #efeee6"/>
   </g>
   <g id="patch_14">
    <path d="M 13.14 439.2 
L 93.78 439.2 
L 93.78 237.6 
L 13.14 237.6 
z
" style="fill: #e3e0d2; opacity: 0.2"/>
   </g>
   <g id="patch_15">
    <path d="M -17.1 439.2 
L 13.14 439.2 
L 13.14 237.6 
L -17.1 237.6 
z
" style="fill: #e3e0d2"/>
   </g>
   <g id="patch_16">
    <path d="M 13.14 237.6 
L 93.78 237.6 
L 93.78 86.4 
L 13.14 86.4 
z
" style="fill: #efeee6; opacity: 0.2"/>
   </g>
   <g id="patch_17">
    <path d="M -17.1 237.6 
L 13.14 237.6 
L 13.14 86.4 
L -17.1 86.4 
z
" style="fill: #efeee6"/>
   </g>
   <g id="matplotlib.axis_1">
    <g id="xtick_1">
     <g id="line2d_1">
      <path d="M 103.86 640.8 
L 103.86 86.4 
" clip-path="url(#pbaa511bb6f)" style="fill: none; stroke: #b0b0b0; stroke-width: 0.8; stroke-linecap: square"/>
     </g>
     <g id="line2d_2">
      <defs>
       <path id="m9032a54a77" d="M 0 0 
L 0 3.5 
" style="stroke: #000000; stroke-width: 0.8"/>
      </defs>
      <g>
       <use xlink:href="#m9032a54a77" x="103.86" y="640.8" style="stroke: #000000; stroke-width: 0.8"/>
      </g>
     </g>
     <g id="text_1">
      <!-- 1 -->
      <g style="fill: #202020" transform="translate(101.880313 655.9) scale(0.1 -0.1)">
       <defs>
        <path id="Oswald-Regular-31" d="M 1094 0 
L 1094 4288 
Q 1088 4282 950 4250 
Q 813 4218 640 4186 
Q 467 4154 332 4128 
Q 198 4102 192 4102 
L 192 4621 
Q 301 4646 445 4691 
Q 589 4736 739 4800 
Q 890 4864 1027 4960 
Q 1165 5056 1261 5184 
L 1779 5184 
L 1779 0 
L 1094 0 
z
" transform="scale(0.015625)"/>
       </defs>
       <use xlink:href="#Oswald-Regular-31"/>
      </g>
     </g>
    </g>
    <g id="xtick_2">
     <g id="line2d_3">
      <path d="M 124.02 640.8 
L 124.02 86.4 
" clip-path="url(#pbaa511bb6f)" style="fill: none; stroke: #b0b0b0; stroke-width: 0.8; stroke-linecap: square"/>
     </g>
     <g id="line2d_4">
      <g>
       <use xlink:href="#m9032a54a77" x="124.02" y="640.8" style="stroke: #000000; stroke-width: 0.8"/>
      </g>
     </g>
     <g id="text_2">
      <!-- 2 -->
      <g style="fill: #202020" transform="translate(121.630156 655.9) scale(0.1 -0.1)">
       <defs>
        <path id="Oswald-Regular-32" d="M 262 0 
L 262 486 
L 1581 2541 
Q 1728 2771 1853 2969 
Q 1978 3168 2058 3389 
Q 2138 3610 2138 3898 
Q 2138 4256 2022 4461 
Q 1907 4666 1619 4666 
Q 1376 4666 1241 4531 
Q 1107 4397 1056 4179 
Q 1005 3962 1005 3712 
L 1005 3539 
L 320 3539 
L 320 3718 
Q 320 4186 445 4522 
Q 570 4858 848 5043 
Q 1126 5229 1587 5229 
Q 2214 5229 2521 4873 
Q 2829 4518 2829 3891 
Q 2829 3558 2749 3308 
Q 2669 3059 2541 2841 
Q 2413 2624 2259 2394 
L 1069 576 
L 2707 576 
L 2707 0 
L 262 0 
z
" transform="scale(0.015625)"/>
       </defs>
       <use xlink:href="#Oswald-Regular-32"/>
      </g>
     </g>
    </g>
    <g id="xtick_3">
     <g id="line2d_5">
      <path d="M 144.18 640.8 
L 144.18 86.4 
" clip-path="url(#pbaa511bb6f)" style="fill: none; stroke: #b0b0b0; stroke-width: 0.8; stroke-linecap: square"/>
     </g>
     <g id="line2d_6">
      <g>
       <use xlink:href="#m9032a54a77" x="144.18" y="640.8" style="stroke: #000000; stroke-width: 0.8"/>
      </g>
     </g>
     <g id="text_3">
      <!-- 3 -->
      <g style="fill: #202020" transform="translate(141.794844 655.9) scale(0.1 -0.1)">
       <defs>
        <path id="Oswald-Regular-33" d="M 1523 -58 
Q 1101 -58 819 102 
Q 538 262 397 563 
Q 256 864 256 1274 
L 256 1446 
L 934 1446 
Q 934 1421 934 1392 
Q 934 1363 934 1331 
Q 941 1101 989 915 
Q 1037 730 1161 621 
Q 1286 512 1523 512 
Q 1773 512 1901 630 
Q 2029 749 2073 966 
Q 2118 1184 2118 1466 
Q 2118 1875 1968 2134 
Q 1818 2394 1440 2419 
Q 1421 2426 1392 2426 
Q 1363 2426 1344 2426 
L 1344 3110 
Q 1363 3110 1388 3110 
Q 1414 3110 1434 3110 
Q 1798 3123 1958 3302 
Q 2118 3482 2118 3898 
Q 2118 4250 2000 4461 
Q 1882 4672 1530 4672 
Q 1178 4672 1062 4438 
Q 947 4205 934 3840 
Q 934 3814 934 3785 
Q 934 3757 934 3731 
L 256 3731 
L 256 3904 
Q 256 4320 397 4614 
Q 538 4909 822 5069 
Q 1107 5229 1530 5229 
Q 1958 5229 2240 5069 
Q 2522 4909 2662 4611 
Q 2803 4314 2803 3898 
Q 2803 3430 2601 3148 
Q 2400 2867 2061 2765 
Q 2298 2694 2461 2521 
Q 2624 2349 2713 2083 
Q 2803 1818 2803 1466 
Q 2803 1005 2675 662 
Q 2547 320 2265 131 
Q 1984 -58 1523 -58 
z
" transform="scale(0.015625)"/>
       </defs>
       <use xlink:href="#Oswald-Regular-33"/>
      </g>
     </g>
    </g>
    <g id="xtick_4">
     <g id="line2d_7">
      <path d="M 164.34 640.8 
L 164.34 86.4 
" clip-path="url(#pbaa511bb6f)" style="fill: none; stroke: #b0b0b0; stroke-width: 0.8; stroke-linecap: square"/>
     </g>
     <g id="line2d_8">
      <g>
       <use xlink:href="#m9032a54a77" x="164.34" y="640.8" style="stroke: #000000; stroke-width: 0.8"/>
      </g>
     </g>
     <g id="text_4">
      <!-- 4 -->
      <g style="fill: #202020" transform="translate(161.925156 655.9) scale(0.1 -0.1)">
       <defs>
        <path id="Oswald-Regular-34" d="M 1760 0 
L 1760 1389 
L 256 1389 
L 256 2106 
L 1606 5184 
L 2413 5184 
L 2413 1997 
L 2995 1997 
L 2995 1389 
L 2413 1389 
L 2413 0 
L 1760 0 
z
M 915 1997 
L 1760 1997 
L 1760 4352 
L 915 1997 
z
" transform="scale(0.015625)"/>
       </defs>
       <use xlink:href="#Oswald-Regular-34"/>
      </g>
     </g>
    </g>
    <g id="xtick_5">
     <g id="line2d_9">
      <path d="M 184.5 640.8 
L 184.5 86.4 
" clip-path="url(#pbaa511bb6f)" style="fill: none; stroke: #b0b0b0; stroke-width: 0.8; stroke-linecap: square"/>
     </g>
     <g id="line2d_10">
      <g>
       <use xlink:href="#m9032a54a77" x="184.5" y="640.8" style="stroke: #000000; stroke-width: 0.8"/>
      </g>
     </g>
     <g id="text_5">
      <!-- 5 -->
      <g style="fill: #202020" transform="translate(182.120313 655.9) scale(0.1 -0.1)">
       <defs>
        <path id="Oswald-Regular-35" d="M 1555 -51 
Q 1088 -51 813 128 
Q 538 307 419 646 
Q 301 986 301 1453 
L 986 1453 
Q 986 1222 1024 1001 
Q 1062 781 1187 637 
Q 1312 493 1568 493 
Q 1850 493 1971 656 
Q 2093 819 2125 1097 
Q 2157 1376 2157 1728 
Q 2157 2080 2118 2326 
Q 2080 2573 1958 2704 
Q 1837 2835 1574 2835 
Q 1363 2835 1216 2704 
Q 1069 2573 998 2406 
L 416 2406 
L 416 5184 
L 2650 5184 
L 2650 4499 
L 1037 4499 
L 992 3066 
Q 1120 3200 1309 3277 
Q 1498 3354 1741 3354 
Q 2163 3354 2403 3155 
Q 2643 2957 2742 2611 
Q 2842 2266 2842 1818 
Q 2842 1421 2784 1078 
Q 2726 736 2582 483 
Q 2438 230 2188 89 
Q 1939 -51 1555 -51 
z
" transform="scale(0.015625)"/>
       </defs>
       <use xlink:href="#Oswald-Regular-35"/>
      </g>
     </g>
    </g>
    <g id="xtick_6">
     <g id="line2d_11">
      <path d="M 204.66 640.8 
L 204.66 86.4 
" clip-path="url(#pbaa511bb6f)" style="fill: none; stroke: #b0b0b0; stroke-width: 0.8; stroke-linecap: square"/>
     </g>
     <g id="line2d_12">
      <g>
       <use xlink:href="#m9032a54a77" x="204.66" y="640.8" style="stroke: #000000; stroke-width: 0.8"/>
      </g>
     </g>
     <g id="text_6">
      <!-- 6 -->
      <g style="fill: #202020" transform="translate(202.145156 655.9) scale(0.1 -0.1)">
       <defs>
        <path id="Oswald-Regular-36" d="M 1645 -58 
Q 1197 -58 915 169 
Q 634 397 502 784 
Q 371 1171 371 1645 
L 371 3392 
Q 371 3898 486 4314 
Q 602 4730 880 4979 
Q 1158 5229 1645 5229 
Q 2048 5229 2326 5081 
Q 2605 4934 2755 4652 
Q 2906 4371 2912 3968 
Q 2912 3955 2915 3932 
Q 2918 3910 2918 3891 
L 2227 3891 
Q 2227 4269 2105 4467 
Q 1984 4666 1645 4666 
Q 1459 4666 1324 4547 
Q 1190 4429 1123 4185 
Q 1056 3942 1056 3558 
L 1056 2771 
Q 1158 2931 1347 3030 
Q 1536 3130 1811 3130 
Q 2240 3130 2483 2944 
Q 2726 2758 2828 2422 
Q 2931 2086 2931 1632 
Q 2931 1165 2803 781 
Q 2675 397 2393 169 
Q 2112 -58 1645 -58 
z
M 1645 512 
Q 1875 512 2003 643 
Q 2131 774 2185 992 
Q 2240 1210 2240 1466 
Q 2240 1773 2211 2035 
Q 2182 2298 2060 2454 
Q 1939 2611 1645 2611 
Q 1504 2611 1389 2560 
Q 1274 2509 1190 2429 
Q 1107 2349 1056 2259 
L 1056 1485 
Q 1056 1222 1110 998 
Q 1165 774 1293 643 
Q 1421 512 1645 512 
z
" transform="scale(0.015625)"/>
       </defs>
       <use xlink:href="#Oswald-Regular-36"/>
      </g>
     </g>
    </g>
    <g id="xtick_7">
     <g id="line2d_13">
      <path d="M 224.82 640.8 
L 224.82 86.4 
" clip-path="url(#pbaa511bb6f)" style="fill: none; stroke: #b0b0b0; stroke-width: 0.8; stroke-linecap: square"/>
     </g>
     <g id="line2d_14">
      <g>
       <use xlink:href="#m9032a54a77" x="224.82" y="640.8" style="stroke: #000000; stroke-width: 0.8"/>
      </g>
     </g>
     <g id="text_7">
      <!-- 7 -->
      <g style="fill: #202020" transform="translate(222.890312 655.9) scale(0.1 -0.1)">
       <defs>
        <path id="Oswald-Regular-37" d="M 595 0 
L 1530 4646 
L 141 4646 
L 141 5184 
L 2214 5184 
L 2214 4851 
L 1254 0 
L 595 0 
z
" transform="scale(0.015625)"/>
       </defs>
       <use xlink:href="#Oswald-Regular-37"/>
      </g>
     </g>
    </g>
    <g id="xtick_8">
     <g id="line2d_15">
      <path d="M 244.98 640.8 
L 244.98 86.4 
" clip-path="url(#pbaa511bb6f)" style="fill: none; stroke: #b0b0b0; stroke-width: 0.8; stroke-linecap: square"/>
     </g>
     <g id="line2d_16">
      <g>
       <use xlink:href="#m9032a54a77" x="244.98" y="640.8" style="stroke: #000000; stroke-width: 0.8"/>
      </g>
     </g>
     <g id="text_8">
      <!-- 8 -->
      <g style="fill: #202020" transform="translate(242.484687 655.9) scale(0.1 -0.1)">
       <defs>
        <path id="Oswald-Regular-38" d="M 1600 -58 
Q 1133 -58 851 128 
Q 570 314 445 656 
Q 320 998 320 1459 
Q 320 1722 365 1920 
Q 410 2118 496 2268 
Q 582 2419 700 2531 
Q 819 2643 960 2733 
Q 704 2906 544 3184 
Q 384 3462 384 3891 
Q 384 4301 512 4601 
Q 640 4902 912 5065 
Q 1184 5229 1600 5229 
Q 2016 5229 2281 5065 
Q 2547 4902 2675 4601 
Q 2803 4301 2803 3891 
Q 2803 3456 2646 3181 
Q 2490 2906 2227 2733 
Q 2368 2643 2486 2531 
Q 2605 2419 2691 2268 
Q 2778 2118 2826 1920 
Q 2874 1722 2874 1459 
Q 2874 998 2749 656 
Q 2624 314 2345 128 
Q 2067 -58 1600 -58 
z
M 1600 486 
Q 1850 486 1984 614 
Q 2118 742 2166 960 
Q 2214 1178 2214 1446 
Q 2214 1690 2160 1904 
Q 2106 2118 1971 2256 
Q 1837 2394 1600 2394 
Q 1363 2394 1225 2259 
Q 1088 2125 1030 1910 
Q 973 1696 973 1446 
Q 973 1178 1024 960 
Q 1075 742 1212 614 
Q 1350 486 1600 486 
z
M 1600 3046 
Q 1818 3053 1930 3181 
Q 2042 3309 2086 3510 
Q 2131 3712 2131 3930 
Q 2131 4250 2016 4474 
Q 1901 4698 1600 4698 
Q 1299 4698 1177 4474 
Q 1056 4250 1056 3930 
Q 1056 3712 1101 3510 
Q 1146 3309 1264 3181 
Q 1382 3053 1600 3046 
z
" transform="scale(0.015625)"/>
       </defs>
       <use xlink:href="#Oswald-Regular-38"/>
      </g>
     </g>
    </g>
    <g id="xtick_9">
     <g id="line2d_17">
      <path d="M 265.14 640.8 
L 265.14 86.4 
" clip-path="url(#pbaa511bb6f)" style="fill: none; stroke: #b0b0b0; stroke-width: 0.8; stroke-linecap: square"/>
     </g>
     <g id="line2d_18">
      <g>
       <use xlink:href="#m9032a54a77" x="265.14" y="640.8" style="stroke: #000000; stroke-width: 0.8"/>
      </g>
     </g>
     <g id="text_9">
      <!-- 9 -->
      <g style="fill: #202020" transform="translate(262.629844 655.9) scale(0.1 -0.1)">
       <defs>
        <path id="Oswald-Regular-39" d="M 1568 -58 
Q 1165 -58 880 92 
Q 595 243 448 531 
Q 301 819 294 1229 
Q 294 1242 294 1258 
Q 294 1274 294 1286 
L 979 1286 
Q 979 915 1100 713 
Q 1222 512 1574 512 
Q 1766 512 1894 630 
Q 2022 749 2086 995 
Q 2150 1242 2150 1619 
L 2150 2406 
Q 2054 2246 1865 2147 
Q 1677 2048 1395 2048 
Q 966 2048 723 2237 
Q 480 2426 381 2762 
Q 282 3098 282 3546 
Q 282 4019 410 4400 
Q 538 4781 822 5005 
Q 1107 5229 1568 5229 
Q 2016 5229 2297 5001 
Q 2579 4774 2710 4390 
Q 2842 4006 2842 3533 
L 2842 1792 
Q 2842 1293 2726 870 
Q 2611 448 2336 195 
Q 2061 -58 1568 -58 
z
M 1568 2566 
Q 1792 2566 1933 2678 
Q 2074 2790 2150 2925 
L 2150 3693 
Q 2150 3962 2099 4182 
Q 2048 4403 1920 4534 
Q 1792 4666 1568 4666 
Q 1344 4666 1213 4531 
Q 1082 4397 1027 4182 
Q 973 3968 973 3712 
Q 973 3405 1001 3142 
Q 1030 2880 1155 2723 
Q 1280 2566 1568 2566 
z
" transform="scale(0.015625)"/>
       </defs>
       <use xlink:href="#Oswald-Regular-39"/>
      </g>
     </g>
    </g>
   </g>
   <g id="matplotlib.axis_2">
    <g id="ytick_1">
     <g id="line2d_19">
      <path d="M 93.78 615.6 
L 275.22 615.6 
" clip-path="url(#pbaa511bb6f)" style="fill: none; stroke: #b0b0b0; stroke-width: 0.8; stroke-linecap: square"/>
     </g>
     <g id="line2d_20">
      <defs>
       <path id="m99e49537f7" d="M 0 0 
L -3.5 0 
" style="stroke: #000000; stroke-width: 0.8"/>
      </defs>
      <g>
       <use xlink:href="#m99e49537f7" x="93.78" y="615.6" style="stroke: #000000; stroke-width: 0.8"/>
      </g>
     </g>
     <g id="text_10">
      <!-- categ 4A -->
      <g style="fill: #e51951" transform="translate(49.550312 619.325) scale(0.1 -0.1)">
       <defs>
        <path id="SourceSerifPro-Light-63" d="M 1728 -83 
Q 1306 -83 986 115 
Q 666 314 486 672 
Q 307 1030 307 1504 
Q 307 2010 515 2365 
Q 723 2720 1059 2912 
Q 1395 3104 1773 3104 
Q 2144 3104 2438 2905 
Q 2733 2707 2842 2368 
Q 2803 2195 2637 2195 
Q 2534 2195 2483 2249 
Q 2432 2304 2400 2387 
L 2259 2790 
Q 2138 2854 2016 2880 
Q 1894 2906 1773 2906 
Q 1453 2906 1197 2739 
Q 941 2573 793 2265 
Q 646 1958 646 1536 
Q 646 1126 793 819 
Q 941 512 1200 345 
Q 1459 179 1786 179 
Q 2368 179 2746 634 
L 2854 563 
Q 2688 269 2406 93 
Q 2125 -83 1728 -83 
z
" transform="scale(0.015625)"/>
        <path id="SourceSerifPro-Light-61" d="M 2694 -77 
Q 2477 -77 2355 76 
Q 2234 230 2202 506 
Q 1920 211 1689 64 
Q 1459 -83 1152 -83 
Q 806 -83 572 115 
Q 339 314 339 685 
Q 339 1005 563 1232 
Q 787 1459 1331 1645 
Q 1536 1715 1760 1776 
Q 1984 1837 2195 1882 
L 2195 2061 
Q 2195 2400 2118 2582 
Q 2042 2765 1885 2835 
Q 1728 2906 1491 2906 
Q 1357 2906 1225 2880 
Q 1094 2854 960 2784 
L 838 2374 
Q 781 2176 614 2176 
Q 448 2176 416 2355 
Q 512 2714 816 2909 
Q 1120 3104 1555 3104 
Q 2029 3104 2269 2870 
Q 2509 2637 2509 2106 
L 2509 691 
Q 2509 378 2582 262 
Q 2656 147 2797 147 
Q 2918 147 3059 269 
L 3149 160 
Q 2970 -77 2694 -77 
z
M 672 749 
Q 672 474 835 330 
Q 998 186 1267 186 
Q 1478 186 1680 298 
Q 1882 410 2195 698 
L 2195 1715 
Q 1990 1670 1772 1603 
Q 1555 1536 1389 1472 
Q 979 1318 825 1136 
Q 672 954 672 749 
z
" transform="scale(0.015625)"/>
        <path id="SourceSerifPro-Light-74" d="M 1370 -83 
Q 1030 -83 870 102 
Q 710 288 710 653 
Q 710 781 713 883 
Q 717 986 717 1139 
L 717 2790 
L 83 2790 
L 83 2982 
L 723 3034 
L 832 3936 
L 1069 3936 
L 1037 3021 
L 1939 3021 
L 1939 2790 
L 1030 2790 
L 1030 691 
Q 1030 397 1139 269 
Q 1248 141 1446 141 
Q 1587 141 1689 176 
Q 1792 211 1914 282 
L 1997 154 
Q 1760 -83 1370 -83 
z
" transform="scale(0.015625)"/>
        <path id="SourceSerifPro-Light-65" d="M 1709 2906 
Q 1440 2906 1213 2762 
Q 986 2618 842 2355 
Q 698 2093 666 1734 
L 2336 1734 
Q 2470 1734 2518 1804 
Q 2566 1875 2566 2016 
Q 2566 2246 2464 2451 
Q 2362 2656 2170 2781 
Q 1978 2906 1709 2906 
z
M 1734 -83 
Q 1350 -83 1030 93 
Q 710 269 515 621 
Q 320 973 320 1504 
Q 320 1990 515 2348 
Q 710 2707 1030 2905 
Q 1350 3104 1722 3104 
Q 2074 3104 2336 2947 
Q 2598 2790 2742 2521 
Q 2886 2253 2886 1907 
Q 2886 1792 2873 1702 
Q 2861 1613 2842 1542 
L 659 1549 
Q 666 1075 822 771 
Q 979 467 1238 323 
Q 1498 179 1805 179 
Q 2112 179 2349 294 
Q 2586 410 2765 608 
L 2867 518 
Q 2688 243 2390 80 
Q 2093 -83 1734 -83 
z
" transform="scale(0.015625)"/>
        <path id="SourceSerifPro-Light-67" d="M 1517 1171 
Q 1869 1171 2086 1417 
Q 2304 1664 2304 2054 
Q 2304 2438 2093 2678 
Q 1882 2918 1530 2918 
Q 1178 2918 963 2675 
Q 749 2432 749 2048 
Q 749 1658 960 1414 
Q 1171 1171 1517 1171 
z
M 1523 992 
Q 1261 992 1043 1082 
Q 909 934 841 816 
Q 774 698 774 563 
Q 774 422 889 336 
Q 1005 250 1280 250 
L 2170 250 
Q 2611 250 2841 54 
Q 3072 -141 3072 -512 
Q 3072 -774 2909 -1014 
Q 2746 -1254 2419 -1404 
Q 2093 -1555 1594 -1555 
Q 954 -1555 621 -1324 
Q 288 -1094 288 -730 
Q 288 -493 435 -310 
Q 582 -128 858 13 
Q 493 122 493 448 
Q 493 634 598 794 
Q 704 954 915 1146 
Q 691 1274 563 1504 
Q 435 1734 435 2048 
Q 435 2534 742 2819 
Q 1050 3104 1530 3104 
Q 1965 3104 2253 2874 
L 2989 3072 
L 3085 3008 
L 3085 2733 
L 2394 2733 
Q 2502 2605 2560 2432 
Q 2618 2259 2618 2048 
Q 2618 1562 2307 1277 
Q 1997 992 1523 992 
z
M 608 -666 
Q 608 -998 877 -1171 
Q 1146 -1344 1613 -1344 
Q 2182 -1344 2476 -1120 
Q 2771 -896 2771 -582 
Q 2771 -358 2627 -208 
Q 2483 -58 2106 -58 
L 1325 -58 
Q 1242 -58 1149 -51 
Q 1056 -45 973 -32 
Q 794 -173 701 -317 
Q 608 -461 608 -666 
z
" transform="scale(0.015625)"/>
        <path id="SourceSerifPro-Light-20" transform="scale(0.015625)"/>
        <path id="SourceSerifPro-Light-34" d="M 3056 1344 
L 2326 1344 
L 2326 0 
L 2013 0 
L 2013 1344 
L 189 1344 
L 189 1549 
L 2115 4224 
L 2326 4224 
L 2326 1600 
L 3056 1600 
L 3056 1344 
z
M 445 1600 
L 2013 1600 
L 2013 3782 
L 445 1600 
z
" transform="scale(0.015625)"/>
        <path id="SourceSerifPro-Light-41" d="M 2003 3885 
L 1293 1702 
L 2726 1702 
L 2003 3885 
z
M 58 0 
L 58 179 
L 582 237 
L 1952 4352 
L 2189 4352 
L 3578 230 
L 4173 179 
L 4173 0 
L 2528 0 
L 2528 179 
L 3213 237 
L 2790 1510 
L 1235 1510 
L 819 237 
L 1408 179 
L 1408 0 
L 58 0 
z
" transform="scale(0.015625)"/>
       </defs>
       <use xlink:href="#SourceSerifPro-Light-63"/>
       <use xlink:href="#SourceSerifPro-Light-61" x="48.699997"/>
       <use xlink:href="#SourceSerifPro-Light-74" x="99.299988"/>
       <use xlink:href="#SourceSerifPro-Light-65" x="132.099976"/>
       <use xlink:href="#SourceSerifPro-Light-67" x="181.899963"/>
       <use xlink:href="#SourceSerifPro-Light-20" x="233.09996"/>
       <use xlink:href="#SourceSerifPro-Light-34" x="257.299957"/>
       <use xlink:href="#SourceSerifPro-Light-41" x="306.599945"/>
      </g>
     </g>
    </g>
    <g id="ytick_2">
     <g id="line2d_21">
      <path d="M 93.78 565.2 
L 275.22 565.2 
" clip-path="url(#pbaa511bb6f)" style="fill: none; stroke: #b0b0b0; stroke-width: 0.8; stroke-linecap: square"/>
     </g>
     <g id="line2d_22">
      <g>
       <use xlink:href="#m99e49537f7" x="93.78" y="565.2" style="stroke: #000000; stroke-width: 0.8"/>
      </g>
     </g>
     <g id="text_11">
      <!-- categ 4B -->
      <g style="fill: #e51951" transform="translate(50.040937 568.925) scale(0.1 -0.1)">
       <defs>
        <path id="SourceSerifPro-Light-42" d="M 1824 2144 
L 1344 2144 
Q 1344 1555 1347 1091 
Q 1350 627 1357 205 
L 1958 205 
Q 2566 205 2892 454 
Q 3219 704 3219 1165 
Q 3219 1638 2889 1891 
Q 2560 2144 1824 2144 
z
M 1875 4109 
L 1357 4109 
Q 1350 3674 1347 3226 
Q 1344 2778 1344 2336 
L 1766 2336 
Q 2394 2336 2707 2585 
Q 3021 2835 3021 3283 
Q 3021 3680 2755 3894 
Q 2490 4109 1875 4109 
z
M 339 4134 
L 339 4314 
L 1997 4314 
Q 2682 4314 3024 4029 
Q 3366 3744 3366 3290 
Q 3366 2938 3123 2650 
Q 2880 2362 2349 2259 
Q 3002 2189 3293 1881 
Q 3584 1574 3584 1158 
Q 3584 845 3417 582 
Q 3251 320 2905 160 
Q 2560 0 2016 0 
L 339 0 
L 339 179 
L 992 230 
Q 998 666 998 1104 
Q 998 1542 998 1984 
L 998 2330 
Q 998 2771 998 3209 
Q 998 3648 992 4083 
L 339 4134 
z
" transform="scale(0.015625)"/>
       </defs>
       <use xlink:href="#SourceSerifPro-Light-63"/>
       <use xlink:href="#SourceSerifPro-Light-61" x="48.699997"/>
       <use xlink:href="#SourceSerifPro-Light-74" x="99.299988"/>
       <use xlink:href="#SourceSerifPro-Light-65" x="132.099976"/>
       <use xlink:href="#SourceSerifPro-Light-67" x="181.899963"/>
       <use xlink:href="#SourceSerifPro-Light-20" x="233.09996"/>
       <use xlink:href="#SourceSerifPro-Light-34" x="257.299957"/>
       <use xlink:href="#SourceSerifPro-Light-42" x="306.599945"/>
      </g>
     </g>
    </g>
    <g id="ytick_3">
     <g id="line2d_23">
      <path d="M 93.78 514.8 
L 275.22 514.8 
" clip-path="url(#pbaa511bb6f)" style="fill: none; stroke: #b0b0b0; stroke-width: 0.8; stroke-linecap: square"/>
     </g>
     <g id="line2d_24">
      <g>
       <use xlink:href="#m99e49537f7" x="93.78" y="514.8" style="stroke: #000000; stroke-width: 0.8"/>
      </g>
     </g>
     <g id="text_12">
      <!-- categ 3A -->
      <g style="fill: #f7a73b" transform="translate(49.550312 518.525) scale(0.1 -0.1)">
       <defs>
        <path id="SourceSerifPro-Light-33" d="M 1042 2291 
L 1298 2291 
Q 1752 2291 2040 2534 
Q 2328 2778 2328 3226 
Q 2328 3610 2107 3834 
Q 1886 4058 1477 4058 
Q 1214 4058 971 3968 
L 837 3578 
Q 798 3456 747 3401 
Q 696 3347 600 3347 
Q 453 3347 408 3494 
Q 517 3891 833 4070 
Q 1150 4250 1528 4250 
Q 2053 4250 2360 3965 
Q 2667 3680 2667 3232 
Q 2667 2874 2430 2589 
Q 2194 2304 1765 2189 
Q 2277 2118 2539 1833 
Q 2802 1549 2802 1101 
Q 2802 749 2626 480 
Q 2450 211 2149 64 
Q 1848 -83 1458 -83 
Q 1016 -83 705 109 
Q 395 301 280 691 
Q 331 851 491 851 
Q 581 851 629 790 
Q 677 730 722 602 
L 856 211 
Q 984 166 1115 137 
Q 1246 109 1400 109 
Q 1912 109 2184 381 
Q 2456 653 2456 1101 
Q 2456 1574 2177 1827 
Q 1899 2080 1330 2080 
L 1042 2080 
L 1042 2291 
z
" transform="scale(0.015625)"/>
       </defs>
       <use xlink:href="#SourceSerifPro-Light-63"/>
       <use xlink:href="#SourceSerifPro-Light-61" x="48.699997"/>
       <use xlink:href="#SourceSerifPro-Light-74" x="99.299988"/>
       <use xlink:href="#SourceSerifPro-Light-65" x="132.099976"/>
       <use xlink:href="#SourceSerifPro-Light-67" x="181.899963"/>
       <use xlink:href="#SourceSerifPro-Light-20" x="233.09996"/>
       <use xlink:href="#SourceSerifPro-Light-33" x="257.299957"/>
       <use xlink:href="#SourceSerifPro-Light-41" x="306.599945"/>
      </g>
     </g>
    </g>
    <g id="ytick_4">
     <g id="line2d_25">
      <path d="M 93.78 464.4 
L 275.22 464.4 
" clip-path="url(#pbaa511bb6f)" style="fill: none; stroke: #b0b0b0; stroke-width: 0.8; stroke-linecap: square"/>
     </g>
     <g id="line2d_26">
      <g>
       <use xlink:href="#m99e49537f7" x="93.78" y="464.4" style="stroke: #000000; stroke-width: 0.8"/>
      </g>
     </g>
     <g id="text_13">
      <!-- categ 3B -->
      <g style="fill: #f7a73b" transform="translate(50.040937 468.125) scale(0.1 -0.1)">
       <use xlink:href="#SourceSerifPro-Light-63"/>
       <use xlink:href="#SourceSerifPro-Light-61" x="48.699997"/>
       <use xlink:href="#SourceSerifPro-Light-74" x="99.299988"/>
       <use xlink:href="#SourceSerifPro-Light-65" x="132.099976"/>
       <use xlink:href="#SourceSerifPro-Light-67" x="181.899963"/>
       <use xlink:href="#SourceSerifPro-Light-20" x="233.09996"/>
       <use xlink:href="#SourceSerifPro-Light-33" x="257.299957"/>
       <use xlink:href="#SourceSerifPro-Light-42" x="306.599945"/>
      </g>
     </g>
    </g>
    <g id="ytick_5">
     <g id="line2d_27">
      <path d="M 93.78 414 
L 275.22 414 
" clip-path="url(#pbaa511bb6f)" style="fill: none; stroke: #b0b0b0; stroke-width: 0.8; stroke-linecap: square"/>
     </g>
     <g id="line2d_28">
      <g>
       <use xlink:href="#m99e49537f7" x="93.78" y="414" style="stroke: #000000; stroke-width: 0.8"/>
      </g>
     </g>
     <g id="text_14">
      <!-- categ 2A -->
      <g style="fill: #e51951" transform="translate(49.550312 417.725) scale(0.1 -0.1)">
       <defs>
        <path id="SourceSerifPro-Light-32" d="M 310 0 
L 310 250 
Q 624 595 915 928 
Q 1206 1261 1424 1498 
Q 1750 1869 1945 2150 
Q 2141 2432 2227 2669 
Q 2314 2906 2314 3136 
Q 2314 3533 2086 3795 
Q 1859 4058 1430 4058 
Q 1187 4058 925 3955 
L 746 3533 
Q 662 3277 502 3277 
Q 368 3277 298 3411 
Q 413 3821 749 4035 
Q 1085 4250 1507 4250 
Q 2070 4250 2364 3952 
Q 2659 3654 2659 3155 
Q 2659 2906 2553 2659 
Q 2448 2413 2205 2096 
Q 1962 1779 1533 1318 
Q 1411 1184 1155 905 
Q 899 627 605 314 
L 2864 314 
L 2864 0 
L 310 0 
z
" transform="scale(0.015625)"/>
       </defs>
       <use xlink:href="#SourceSerifPro-Light-63"/>
       <use xlink:href="#SourceSerifPro-Light-61" x="48.699997"/>
       <use xlink:href="#SourceSerifPro-Light-74" x="99.299988"/>
       <use xlink:href="#SourceSerifPro-Light-65" x="132.099976"/>
       <use xlink:href="#SourceSerifPro-Light-67" x="181.899963"/>
       <use xlink:href="#SourceSerifPro-Light-20" x="233.09996"/>
       <use xlink:href="#SourceSerifPro-Light-32" x="257.299957"/>
       <use xlink:href="#SourceSerifPro-Light-41" x="306.599945"/>
      </g>
     </g>
    </g>
    <g id="ytick_6">
     <g id="line2d_29">
      <path d="M 93.78 363.6 
L 275.22 363.6 
" clip-path="url(#pbaa511bb6f)" style="fill: none; stroke: #b0b0b0; stroke-width: 0.8; stroke-linecap: square"/>
     </g>
     <g id="line2d_30">
      <g>
       <use xlink:href="#m99e49537f7" x="93.78" y="363.6" style="stroke: #000000; stroke-width: 0.8"/>
      </g>
     </g>
     <g id="text_15">
      <!-- categ 2B -->
      <g style="fill: #e51951" transform="translate(50.040937 367.325) scale(0.1 -0.1)">
       <use xlink:href="#SourceSerifPro-Light-63"/>
       <use xlink:href="#SourceSerifPro-Light-61" x="48.699997"/>
       <use xlink:href="#SourceSerifPro-Light-74" x="99.299988"/>
       <use xlink:href="#SourceSerifPro-Light-65" x="132.099976"/>
       <use xlink:href="#SourceSerifPro-Light-67" x="181.899963"/>
       <use xlink:href="#SourceSerifPro-Light-20" x="233.09996"/>
       <use xlink:href="#SourceSerifPro-Light-32" x="257.299957"/>
       <use xlink:href="#SourceSerifPro-Light-42" x="306.599945"/>
      </g>
     </g>
    </g>
    <g id="ytick_7">
     <g id="line2d_31">
      <path d="M 93.78 313.2 
L 275.22 313.2 
" clip-path="url(#pbaa511bb6f)" style="fill: none; stroke: #b0b0b0; stroke-width: 0.8; stroke-linecap: square"/>
     </g>
     <g id="line2d_32">
      <g>
       <use xlink:href="#m99e49537f7" x="93.78" y="313.2" style="stroke: #000000; stroke-width: 0.8"/>
      </g>
     </g>
     <g id="text_16">
      <!-- categ 2C -->
      <g style="fill: #0393e2" transform="translate(49.73 316.925) scale(0.1 -0.1)">
       <defs>
        <path id="SourceSerifPro-Light-43" d="M 2477 -90 
Q 1843 -90 1369 195 
Q 896 480 630 989 
Q 365 1498 365 2157 
Q 365 2816 637 3321 
Q 909 3827 1385 4115 
Q 1862 4403 2477 4403 
Q 2816 4403 3107 4329 
Q 3398 4256 3699 4077 
L 3725 3174 
L 3475 3174 
L 3360 3955 
Q 2976 4192 2522 4192 
Q 2003 4192 1606 3945 
Q 1210 3699 986 3244 
Q 762 2790 762 2157 
Q 762 1517 986 1062 
Q 1210 608 1597 368 
Q 1984 128 2483 128 
Q 2726 128 2960 179 
Q 3194 230 3411 352 
L 3526 1146 
L 3776 1146 
L 3750 237 
Q 3437 58 3126 -16 
Q 2816 -90 2477 -90 
z
" transform="scale(0.015625)"/>
       </defs>
       <use xlink:href="#SourceSerifPro-Light-63"/>
       <use xlink:href="#SourceSerifPro-Light-61" x="48.699997"/>
       <use xlink:href="#SourceSerifPro-Light-74" x="99.299988"/>
       <use xlink:href="#SourceSerifPro-Light-65" x="132.099976"/>
       <use xlink:href="#SourceSerifPro-Light-67" x="181.899963"/>
       <use xlink:href="#SourceSerifPro-Light-20" x="233.09996"/>
       <use xlink:href="#SourceSerifPro-Light-32" x="257.299957"/>
       <use xlink:href="#SourceSerifPro-Light-43" x="306.599945"/>
      </g>
     </g>
    </g>
    <g id="ytick_8">
     <g id="line2d_33">
      <path d="M 93.78 262.8 
L 275.22 262.8 
" clip-path="url(#pbaa511bb6f)" style="fill: none; stroke: #b0b0b0; stroke-width: 0.8; stroke-linecap: square"/>
     </g>
     <g id="line2d_34">
      <g>
       <use xlink:href="#m99e49537f7" x="93.78" y="262.8" style="stroke: #000000; stroke-width: 0.8"/>
      </g>
     </g>
     <g id="text_17">
      <!-- categ 2D -->
      <g style="fill: #e51951" transform="translate(49.03 266.525) scale(0.1 -0.1)">
       <defs>
        <path id="SourceSerifPro-Light-44" d="M 1344 2131 
Q 1344 1587 1347 1116 
Q 1350 646 1357 205 
L 1933 205 
Q 2854 205 3315 726 
Q 3776 1248 3776 2150 
Q 3776 3104 3321 3606 
Q 2867 4109 2010 4109 
L 1357 4109 
Q 1350 3674 1347 3219 
Q 1344 2765 1344 2285 
L 1344 2131 
z
M 339 4134 
L 339 4314 
L 2080 4314 
Q 3053 4314 3613 3757 
Q 4173 3200 4173 2150 
Q 4173 1485 3910 1001 
Q 3648 518 3158 259 
Q 2669 0 1997 0 
L 339 0 
L 339 179 
L 992 230 
Q 998 666 998 1130 
Q 998 1594 998 2131 
L 998 2285 
Q 998 2758 998 3203 
Q 998 3648 992 4083 
L 339 4134 
z
" transform="scale(0.015625)"/>
       </defs>
       <use xlink:href="#SourceSerifPro-Light-63"/>
       <use xlink:href="#SourceSerifPro-Light-61" x="48.699997"/>
       <use xlink:href="#SourceSerifPro-Light-74" x="99.299988"/>
       <use xlink:href="#SourceSerifPro-Light-65" x="132.099976"/>
       <use xlink:href="#SourceSerifPro-Light-67" x="181.899963"/>
       <use xlink:href="#SourceSerifPro-Light-20" x="233.09996"/>
       <use xlink:href="#SourceSerifPro-Light-32" x="257.299957"/>
       <use xlink:href="#SourceSerifPro-Light-44" x="306.599945"/>
      </g>
     </g>
    </g>
    <g id="ytick_9">
     <g id="line2d_35">
      <path d="M 93.78 212.4 
L 275.22 212.4 
" clip-path="url(#pbaa511bb6f)" style="fill: none; stroke: #b0b0b0; stroke-width: 0.8; stroke-linecap: square"/>
     </g>
     <g id="line2d_36">
      <g>
       <use xlink:href="#m99e49537f7" x="93.78" y="212.4" style="stroke: #000000; stroke-width: 0.8"/>
      </g>
     </g>
     <g id="text_18">
      <!-- categ 1A -->
      <g style="fill: #f7a73b" transform="translate(49.550312 216.125) scale(0.1 -0.1)">
       <defs>
        <path id="SourceSerifPro-Light-31" d="M 563 3904 
L 1754 4224 
L 1843 4154 
L 1818 3226 
L 1818 1357 
Q 1818 1082 1821 803 
Q 1824 525 1830 243 
L 2778 166 
L 2778 0 
L 506 0 
L 506 166 
L 1491 250 
Q 1498 531 1501 806 
Q 1504 1082 1504 1357 
L 1504 3885 
L 563 3725 
L 563 3904 
z
" transform="scale(0.015625)"/>
       </defs>
       <use xlink:href="#SourceSerifPro-Light-63"/>
       <use xlink:href="#SourceSerifPro-Light-61" x="48.699997"/>
       <use xlink:href="#SourceSerifPro-Light-74" x="99.299988"/>
       <use xlink:href="#SourceSerifPro-Light-65" x="132.099976"/>
       <use xlink:href="#SourceSerifPro-Light-67" x="181.899963"/>
       <use xlink:href="#SourceSerifPro-Light-20" x="233.09996"/>
       <use xlink:href="#SourceSerifPro-Light-31" x="257.299957"/>
       <use xlink:href="#SourceSerifPro-Light-41" x="306.599945"/>
      </g>
     </g>
    </g>
    <g id="ytick_10">
     <g id="line2d_37">
      <path d="M 93.78 162 
L 275.22 162 
" clip-path="url(#pbaa511bb6f)" style="fill: none; stroke: #b0b0b0; stroke-width: 0.8; stroke-linecap: square"/>
     </g>
     <g id="line2d_38">
      <g>
       <use xlink:href="#m99e49537f7" x="93.78" y="162" style="stroke: #000000; stroke-width: 0.8"/>
      </g>
     </g>
     <g id="text_19">
      <!-- categ 1B -->
      <g style="fill: #0393e2" transform="translate(50.040937 165.725) scale(0.1 -0.1)">
       <use xlink:href="#SourceSerifPro-Light-63"/>
       <use xlink:href="#SourceSerifPro-Light-61" x="48.699997"/>
       <use xlink:href="#SourceSerifPro-Light-74" x="99.299988"/>
       <use xlink:href="#SourceSerifPro-Light-65" x="132.099976"/>
       <use xlink:href="#SourceSerifPro-Light-67" x="181.899963"/>
       <use xlink:href="#SourceSerifPro-Light-20" x="233.09996"/>
       <use xlink:href="#SourceSerifPro-Light-31" x="257.299957"/>
       <use xlink:href="#SourceSerifPro-Light-42" x="306.599945"/>
      </g>
     </g>
    </g>
    <g id="ytick_11">
     <g id="line2d_39">
      <path d="M 93.78 111.6 
L 275.22 111.6 
" clip-path="url(#pbaa511bb6f)" style="fill: none; stroke: #b0b0b0; stroke-width: 0.8; stroke-linecap: square"/>
     </g>
     <g id="line2d_40">
      <g>
       <use xlink:href="#m99e49537f7" x="93.78" y="111.6" style="stroke: #000000; stroke-width: 0.8"/>
      </g>
     </g>
     <g id="text_20">
      <!-- categ 1C -->
      <g style="fill: #f7a73b" transform="translate(49.73 115.325) scale(0.1 -0.1)">
       <use xlink:href="#SourceSerifPro-Light-63"/>
       <use xlink:href="#SourceSerifPro-Light-61" x="48.699997"/>
       <use xlink:href="#SourceSerifPro-Light-74" x="99.299988"/>
       <use xlink:href="#SourceSerifPro-Light-65" x="132.099976"/>
       <use xlink:href="#SourceSerifPro-Light-67" x="181.899963"/>
       <use xlink:href="#SourceSerifPro-Light-20" x="233.09996"/>
       <use xlink:href="#SourceSerifPro-Light-31" x="257.299957"/>
       <use xlink:href="#SourceSerifPro-Light-43" x="306.599945"/>
      </g>
     </g>
    </g>
   </g>
   <g id="line2d_41">
    <path d="M 124.02 615.6 
L 144.18 565.2 
L 204.66 514.8 
L 224.82 464.4 
L 124.02 414 
L 164.34 363.6 
L 265.14 313.2 
L 144.18 262.8 
L 184.5 212.4 
L 265.14 162 
L 184.5 111.6 
" clip-path="url(#pbaa511bb6f)" style="fill: none; stroke: #202020; stroke-width: 2; stroke-linecap: square"/>
   </g>
   <g id="patch_18">
    <path d="M 93.78 640.8 
L 93.78 86.4 
" style="fill: none; stroke: #202020; stroke-width: 0.8; stroke-linejoin: miter; stroke-linecap: square"/>
   </g>
   <g id="patch_19">
    <path d="M 275.22 640.8 
L 275.22 86.4 
" style="fill: none; stroke: #202020; stroke-width: 0.8; stroke-linejoin: miter; stroke-linecap: square"/>
   </g>
   <g id="patch_20">
    <path d="M 93.78 640.8 
L 275.22 640.8 
" style="fill: none; stroke: #202020; stroke-width: 0.8; stroke-linejoin: miter; stroke-linecap: square"/>
   </g>
   <g id="patch_21">
    <path d="M 93.78 86.4 
L 275.22 86.4 
" style="fill: none; stroke: #202020; stroke-width: 0.8; stroke-linejoin: miter; stroke-linecap: square"/>
   </g>
   <g id="text_21">
    <!-- AVALIAÇÃO MULTIDIRECIONAL DE -->
    <g transform="translate(129.395391 49.540219) scale(0.09 -0.09)">
     <defs>
      <path id="Oswald-Regular-41" d="M 122 0 
L 1222 5184 
L 1920 5184 
L 3027 0 
L 2342 0 
L 2106 1306 
L 1050 1306 
L 800 0 
L 122 0 
z
M 1146 1824 
L 2010 1824 
L 1574 4160 
L 1146 1824 
z
" transform="scale(0.015625)"/>
      <path id="Oswald-Regular-56" d="M 1306 0 
L 147 5184 
L 826 5184 
L 1645 1363 
L 2426 5184 
L 3085 5184 
L 1939 0 
L 1306 0 
z
" transform="scale(0.015625)"/>
      <path id="Oswald-Regular-4c" d="M 403 0 
L 403 5184 
L 1126 5184 
L 1126 518 
L 2451 518 
L 2451 0 
L 403 0 
z
" transform="scale(0.015625)"/>
      <path id="Oswald-Regular-49" d="M 442 0 
L 442 5184 
L 1152 5184 
L 1152 0 
L 442 0 
z
" transform="scale(0.015625)"/>
      <path id="Oswald-Regular-c7" d="M 1702 -58 
Q 1152 -58 848 172 
Q 544 403 425 793 
Q 307 1184 307 1664 
L 307 3494 
Q 307 4019 425 4409 
Q 544 4800 848 5014 
Q 1152 5229 1702 5229 
Q 2189 5229 2473 5049 
Q 2758 4870 2883 4537 
Q 3008 4205 3008 3738 
L 3008 3328 
L 2323 3328 
L 2323 3693 
Q 2323 3981 2294 4201 
Q 2266 4422 2138 4544 
Q 2010 4666 1709 4666 
Q 1402 4666 1261 4534 
Q 1120 4403 1078 4163 
Q 1037 3923 1037 3603 
L 1037 1549 
Q 1037 1158 1101 931 
Q 1165 704 1312 608 
Q 1459 512 1709 512 
Q 2003 512 2131 643 
Q 2259 774 2291 1004 
Q 2323 1235 2323 1542 
L 2323 1926 
L 3008 1926 
L 3008 1542 
Q 3008 1069 2893 707 
Q 2778 346 2496 144 
Q 2214 -58 1702 -58 
z
M 1731 -1504 
Q 1629 -1504 1520 -1485 
Q 1411 -1466 1302 -1440 
L 1302 -1094 
Q 1386 -1120 1469 -1129 
Q 1552 -1139 1629 -1139 
Q 1795 -1139 1907 -1081 
Q 2019 -1024 2019 -890 
Q 2019 -774 1955 -707 
Q 1891 -640 1769 -598 
Q 1648 -557 1475 -531 
L 1475 0 
L 1821 0 
L 1821 -358 
Q 2141 -358 2336 -505 
Q 2531 -653 2531 -909 
Q 2531 -1114 2425 -1245 
Q 2320 -1376 2137 -1440 
Q 1955 -1504 1731 -1504 
z
" transform="scale(0.015625)"/>
      <path id="Oswald-Regular-c3" d="M 122 0 
L 1222 5184 
L 1920 5184 
L 3027 0 
L 2342 0 
L 2106 1306 
L 1050 1306 
L 800 0 
L 122 0 
z
M 1146 1824 
L 2010 1824 
L 1574 4160 
L 1146 1824 
z
M 2062 5952 
Q 1883 5952 1745 6032 
Q 1608 6112 1486 6189 
Q 1365 6266 1224 6266 
Q 1115 6266 1060 6208 
Q 1006 6150 1006 6003 
L 616 6003 
Q 616 6195 664 6352 
Q 712 6509 824 6601 
Q 936 6694 1128 6694 
Q 1288 6694 1419 6617 
Q 1550 6541 1678 6464 
Q 1806 6387 1941 6387 
Q 2050 6387 2101 6444 
Q 2152 6502 2152 6656 
L 2536 6656 
Q 2536 6464 2497 6304 
Q 2459 6144 2356 6048 
Q 2254 5952 2062 5952 
z
" transform="scale(0.015625)"/>
      <path id="Oswald-Regular-4f" d="M 1728 -58 
Q 1203 -58 889 147 
Q 576 352 441 733 
Q 307 1114 307 1626 
L 307 3590 
Q 307 4102 444 4470 
Q 582 4838 892 5033 
Q 1203 5229 1728 5229 
Q 2253 5229 2560 5030 
Q 2867 4832 3004 4467 
Q 3142 4102 3142 3590 
L 3142 1619 
Q 3142 1114 3004 736 
Q 2867 358 2560 150 
Q 2253 -58 1728 -58 
z
M 1728 512 
Q 2016 512 2163 630 
Q 2310 749 2361 963 
Q 2413 1178 2413 1466 
L 2413 3738 
Q 2413 4026 2361 4234 
Q 2310 4442 2163 4554 
Q 2016 4666 1728 4666 
Q 1440 4666 1289 4554 
Q 1139 4442 1088 4234 
Q 1037 4026 1037 3738 
L 1037 1466 
Q 1037 1178 1088 963 
Q 1139 749 1289 630 
Q 1440 512 1728 512 
z
" transform="scale(0.015625)"/>
      <path id="Oswald-Regular-20" transform="scale(0.015625)"/>
      <path id="Oswald-Regular-4d" d="M 390 0 
L 486 5184 
L 1197 5184 
L 2112 979 
L 3034 5184 
L 3738 5184 
L 3834 0 
L 3251 0 
L 3194 3763 
L 2317 0 
L 1907 0 
L 1037 3763 
L 979 0 
L 390 0 
z
" transform="scale(0.015625)"/>
      <path id="Oswald-Regular-55" d="M 1741 -58 
Q 1178 -58 877 166 
Q 576 390 467 796 
Q 358 1203 358 1747 
L 358 5184 
L 1050 5184 
L 1050 1715 
Q 1050 1382 1094 1107 
Q 1139 832 1289 672 
Q 1440 512 1741 512 
Q 2048 512 2195 672 
Q 2342 832 2387 1107 
Q 2432 1382 2432 1715 
L 2432 5184 
L 3117 5184 
L 3117 1747 
Q 3117 1203 3008 796 
Q 2899 390 2601 166 
Q 2304 -58 1741 -58 
z
" transform="scale(0.015625)"/>
      <path id="Oswald-Regular-54" d="M 973 0 
L 973 4646 
L 96 4646 
L 96 5184 
L 2547 5184 
L 2547 4646 
L 1696 4646 
L 1696 0 
L 973 0 
z
" transform="scale(0.015625)"/>
      <path id="Oswald-Regular-44" d="M 403 0 
L 403 5184 
L 1530 5184 
Q 2106 5184 2442 5008 
Q 2778 4832 2922 4480 
Q 3066 4128 3066 3603 
L 3066 1696 
Q 3066 1146 2922 768 
Q 2778 390 2454 195 
Q 2131 0 1587 0 
L 403 0 
z
M 1126 518 
L 1536 518 
Q 1933 518 2099 672 
Q 2266 826 2301 1120 
Q 2336 1414 2336 1830 
L 2336 3514 
Q 2336 3917 2285 4166 
Q 2234 4416 2061 4531 
Q 1888 4646 1517 4646 
L 1126 4646 
L 1126 518 
z
" transform="scale(0.015625)"/>
      <path id="Oswald-Regular-52" d="M 403 0 
L 403 5184 
L 1446 5184 
Q 1965 5184 2304 5046 
Q 2643 4909 2806 4605 
Q 2970 4301 2970 3808 
Q 2970 3507 2906 3260 
Q 2842 3014 2701 2844 
Q 2560 2675 2330 2598 
L 3066 0 
L 2368 0 
L 1690 2432 
L 1126 2432 
L 1126 0 
L 403 0 
z
M 1126 2950 
L 1402 2950 
Q 1709 2950 1901 3027 
Q 2093 3104 2182 3289 
Q 2272 3475 2272 3808 
Q 2272 4262 2105 4464 
Q 1939 4666 1446 4666 
L 1126 4666 
L 1126 2950 
z
" transform="scale(0.015625)"/>
      <path id="Oswald-Regular-45" d="M 403 0 
L 403 5184 
L 2413 5184 
L 2413 4646 
L 1126 4646 
L 1126 2931 
L 2170 2931 
L 2170 2419 
L 1126 2419 
L 1126 518 
L 2426 518 
L 2426 0 
L 403 0 
z
" transform="scale(0.015625)"/>
      <path id="Oswald-Regular-43" d="M 1702 -58 
Q 1152 -58 848 172 
Q 544 403 425 793 
Q 307 1184 307 1664 
L 307 3494 
Q 307 4019 425 4409 
Q 544 4800 848 5014 
Q 1152 5229 1702 5229 
Q 2189 5229 2473 5049 
Q 2758 4870 2883 4537 
Q 3008 4205 3008 3738 
L 3008 3328 
L 2323 3328 
L 2323 3693 
Q 2323 3981 2294 4201 
Q 2266 4422 2138 4544 
Q 2010 4666 1709 4666 
Q 1402 4666 1261 4534 
Q 1120 4403 1078 4163 
Q 1037 3923 1037 3603 
L 1037 1549 
Q 1037 1158 1101 931 
Q 1165 704 1312 608 
Q 1459 512 1709 512 
Q 2003 512 2131 643 
Q 2259 774 2291 1004 
Q 2323 1235 2323 1542 
L 2323 1926 
L 3008 1926 
L 3008 1542 
Q 3008 1069 2893 707 
Q 2778 346 2496 144 
Q 2214 -58 1702 -58 
z
" transform="scale(0.015625)"/>
      <path id="Oswald-Regular-4e" d="M 403 0 
L 403 5184 
L 896 5184 
L 2368 1741 
L 2368 5184 
L 2970 5184 
L 2970 0 
L 2509 0 
L 1018 3539 
L 1018 0 
L 403 0 
z
" transform="scale(0.015625)"/>
     </defs>
     <use xlink:href="#Oswald-Regular-41"/>
     <use xlink:href="#Oswald-Regular-56" x="49.199997"/>
     <use xlink:href="#Oswald-Regular-41" x="99.699982"/>
     <use xlink:href="#Oswald-Regular-4c" x="148.899979"/>
     <use xlink:href="#Oswald-Regular-49" x="188.599976"/>
     <use xlink:href="#Oswald-Regular-41" x="213.399963"/>
     <use xlink:href="#Oswald-Regular-c7" x="262.59996"/>
     <use xlink:href="#Oswald-Regular-c3" x="314.099945"/>
     <use xlink:href="#Oswald-Regular-4f" x="363.299942"/>
     <use xlink:href="#Oswald-Regular-20" x="417.199936"/>
     <use xlink:href="#Oswald-Regular-4d" x="440.09993"/>
     <use xlink:href="#Oswald-Regular-55" x="506.099915"/>
     <use xlink:href="#Oswald-Regular-4c" x="560.399902"/>
     <use xlink:href="#Oswald-Regular-54" x="600.099899"/>
     <use xlink:href="#Oswald-Regular-49" x="641.399887"/>
     <use xlink:href="#Oswald-Regular-44" x="666.199875"/>
     <use xlink:href="#Oswald-Regular-49" x="718.899872"/>
     <use xlink:href="#Oswald-Regular-52" x="743.69986"/>
     <use xlink:href="#Oswald-Regular-45" x="795.599854"/>
     <use xlink:href="#Oswald-Regular-43" x="836.29985"/>
     <use xlink:href="#Oswald-Regular-49" x="887.799835"/>
     <use xlink:href="#Oswald-Regular-4f" x="912.599823"/>
     <use xlink:href="#Oswald-Regular-4e" x="966.499817"/>
     <use xlink:href="#Oswald-Regular-41" x="1019.299805"/>
     <use xlink:href="#Oswald-Regular-4c" x="1068.499802"/>
     <use xlink:href="#Oswald-Regular-20" x="1108.199799"/>
     <use xlink:href="#Oswald-Regular-44" x="1131.099792"/>
     <use xlink:href="#Oswald-Regular-45" x="1183.799789"/>
    </g>
    <!-- TESTE -->
    <g transform="translate(174.991641 60.403219) scale(0.09 -0.09)">
     <defs>
      <path id="Oswald-Regular-53" d="M 1626 -58 
Q 1178 -58 880 134 
Q 582 326 428 665 
Q 275 1005 250 1453 
L 890 1626 
Q 909 1350 976 1094 
Q 1043 838 1196 675 
Q 1350 512 1626 512 
Q 1907 512 2051 669 
Q 2195 826 2195 1120 
Q 2195 1472 2035 1686 
Q 1875 1901 1632 2118 
L 762 2886 
Q 506 3110 384 3376 
Q 262 3642 262 4032 
Q 262 4602 588 4915 
Q 915 5229 1478 5229 
Q 1786 5229 2019 5149 
Q 2253 5069 2409 4902 
Q 2566 4736 2659 4483 
Q 2752 4230 2784 3891 
L 2170 3725 
Q 2150 3981 2092 4195 
Q 2035 4410 1891 4541 
Q 1747 4672 1478 4672 
Q 1210 4672 1059 4528 
Q 909 4384 909 4102 
Q 909 3866 989 3712 
Q 1069 3558 1248 3398 
L 2125 2630 
Q 2419 2374 2643 2019 
Q 2867 1664 2867 1178 
Q 2867 794 2707 515 
Q 2547 237 2268 89 
Q 1990 -58 1626 -58 
z
" transform="scale(0.015625)"/>
     </defs>
     <use xlink:href="#Oswald-Regular-54"/>
     <use xlink:href="#Oswald-Regular-45" x="41.299988"/>
     <use xlink:href="#Oswald-Regular-53" x="81.999985"/>
     <use xlink:href="#Oswald-Regular-54" x="129.299973"/>
     <use xlink:href="#Oswald-Regular-45" x="170.59996"/>
    </g>
   </g>
   <g id="text_22">
    <!-- Precisa -->
    <g transform="translate(119.637422 73.462781) scale(0.09 -0.09)">
     <defs>
      <path id="SourceSerifPro-Light-50" d="M 1926 4109 
L 1357 4109 
Q 1350 3674 1347 3229 
Q 1344 2784 1344 2330 
L 1344 1965 
L 1754 1965 
Q 2496 1965 2809 2272 
Q 3123 2579 3123 3066 
Q 3123 3578 2838 3843 
Q 2554 4109 1926 4109 
z
M 339 4134 
L 339 4314 
L 1997 4314 
Q 2739 4314 3110 3974 
Q 3482 3635 3482 3066 
Q 3482 2701 3299 2406 
Q 3117 2112 2736 1942 
Q 2355 1773 1760 1773 
L 1344 1773 
Q 1344 1395 1347 1011 
Q 1350 627 1357 230 
L 2048 179 
L 2048 0 
L 339 0 
L 339 179 
L 992 230 
Q 998 666 998 1104 
Q 998 1542 998 1984 
L 998 2330 
Q 998 2771 998 3209 
Q 998 3648 992 4083 
L 339 4134 
z
" transform="scale(0.015625)"/>
      <path id="SourceSerifPro-Light-72" d="M 275 0 
L 275 166 
L 806 230 
Q 813 474 816 790 
Q 819 1107 819 1344 
L 819 1651 
Q 819 2246 800 2688 
L 237 2714 
L 237 2880 
L 1018 3085 
L 1094 3034 
L 1133 2234 
Q 1280 2618 1558 2861 
Q 1837 3104 2144 3104 
Q 2298 3104 2419 3046 
Q 2541 2989 2586 2912 
Q 2586 2611 2317 2611 
Q 2221 2611 2141 2656 
Q 2061 2701 1971 2778 
L 1901 2842 
Q 1651 2739 1462 2505 
Q 1274 2272 1133 1914 
L 1133 1344 
Q 1133 1107 1136 790 
Q 1139 474 1146 230 
L 1722 166 
L 1722 0 
L 275 0 
z
" transform="scale(0.015625)"/>
      <path id="SourceSerifPro-Light-69" d="M 275 0 
L 275 166 
L 813 230 
Q 819 474 822 790 
Q 826 1107 826 1344 
L 826 1651 
Q 826 1933 826 2182 
Q 826 2432 813 2688 
L 243 2714 
L 243 2880 
L 1075 3085 
L 1152 3034 
L 1139 2240 
L 1139 1344 
Q 1139 1107 1142 790 
Q 1146 474 1152 230 
L 1645 166 
L 1645 0 
L 275 0 
z
M 954 4013 
Q 832 4013 745 4089 
Q 659 4166 659 4294 
Q 659 4429 745 4505 
Q 832 4582 954 4582 
Q 1075 4582 1161 4505 
Q 1248 4429 1248 4294 
Q 1248 4166 1161 4089 
Q 1075 4013 954 4013 
z
" transform="scale(0.015625)"/>
      <path id="SourceSerifPro-Light-73" d="M 1286 -83 
Q 1018 -83 803 -25 
Q 589 32 358 134 
L 333 800 
L 557 800 
L 659 237 
Q 787 173 940 141 
Q 1094 109 1299 109 
Q 1715 109 1920 278 
Q 2125 448 2125 704 
Q 2125 928 1977 1069 
Q 1830 1210 1472 1338 
L 1171 1446 
Q 826 1574 618 1766 
Q 410 1958 410 2278 
Q 410 2624 675 2864 
Q 941 3104 1440 3104 
Q 1702 3104 1894 3037 
Q 2086 2970 2304 2842 
L 2285 2240 
L 2074 2240 
L 2003 2752 
Q 1856 2842 1712 2874 
Q 1568 2906 1421 2906 
Q 1069 2906 893 2749 
Q 717 2592 717 2355 
Q 717 2118 867 1990 
Q 1018 1862 1344 1741 
L 1613 1638 
Q 2067 1472 2249 1270 
Q 2432 1069 2432 774 
Q 2432 550 2307 352 
Q 2182 154 1929 35 
Q 1677 -83 1286 -83 
z
" transform="scale(0.015625)"/>
     </defs>
     <use xlink:href="#SourceSerifPro-Light-50"/>
     <use xlink:href="#SourceSerifPro-Light-72" x="58.199997"/>
     <use xlink:href="#SourceSerifPro-Light-65" x="99.299988"/>
     <use xlink:href="#SourceSerifPro-Light-63" x="149.099976"/>
     <use xlink:href="#SourceSerifPro-Light-69" x="197.799973"/>
     <use xlink:href="#SourceSerifPro-Light-73" x="227.899963"/>
     <use xlink:href="#SourceSerifPro-Light-61" x="270.799957"/>
    </g>
    <!-- de desenvolvimento -->
    <g transform="translate(93.986719 83.6955) scale(0.09 -0.09)">
     <defs>
      <path id="SourceSerifPro-Light-64" d="M 659 1472 
Q 659 813 947 483 
Q 1235 154 1664 154 
Q 1926 154 2140 269 
Q 2355 384 2573 640 
L 2573 2432 
Q 2355 2656 2144 2758 
Q 1933 2861 1709 2861 
Q 1421 2861 1184 2713 
Q 947 2566 803 2259 
Q 659 1952 659 1472 
z
M 2586 -51 
L 2573 422 
Q 2374 160 2131 38 
Q 1888 -83 1594 -83 
Q 1216 -83 928 115 
Q 640 314 480 666 
Q 320 1018 320 1466 
Q 320 1971 499 2336 
Q 678 2701 985 2902 
Q 1293 3104 1677 3104 
Q 1901 3104 2134 2995 
Q 2368 2886 2579 2624 
L 2579 4410 
L 2010 4435 
L 2010 4602 
L 2816 4768 
L 2906 4717 
L 2886 3821 
L 2886 218 
L 3507 166 
L 3507 0 
L 2586 -51 
z
" transform="scale(0.015625)"/>
      <path id="SourceSerifPro-Light-6e" d="M 269 0 
L 269 166 
L 806 230 
Q 813 474 816 790 
Q 819 1107 819 1344 
L 819 1651 
Q 819 2246 800 2688 
L 237 2714 
L 237 2880 
L 1018 3085 
L 1094 3034 
L 1126 2445 
Q 1427 2784 1744 2944 
Q 2061 3104 2355 3104 
Q 2733 3104 2937 2848 
Q 3142 2592 3142 1978 
L 3142 1344 
Q 3142 1107 3145 790 
Q 3149 474 3155 230 
L 3648 166 
L 3648 0 
L 2278 0 
L 2278 166 
L 2816 230 
Q 2822 474 2825 790 
Q 2829 1107 2829 1344 
L 2829 1958 
Q 2829 2432 2672 2624 
Q 2515 2816 2234 2816 
Q 2016 2816 1744 2697 
Q 1472 2579 1133 2227 
L 1133 1344 
Q 1133 1107 1136 790 
Q 1139 474 1146 230 
L 1638 166 
L 1638 0 
L 269 0 
z
" transform="scale(0.015625)"/>
      <path id="SourceSerifPro-Light-76" d="M 1965 2842 
L 1965 3021 
L 3155 3021 
L 3155 2842 
L 2746 2790 
L 1690 -38 
L 1517 -38 
L 390 2797 
L -38 2842 
L -38 3021 
L 1318 3021 
L 1318 2842 
L 768 2790 
L 1664 390 
L 2522 2784 
L 1965 2842 
z
" transform="scale(0.015625)"/>
      <path id="SourceSerifPro-Light-6f" d="M 1734 -83 
Q 1382 -83 1059 86 
Q 736 256 528 608 
Q 320 960 320 1498 
Q 320 2042 528 2397 
Q 736 2752 1059 2928 
Q 1382 3104 1734 3104 
Q 2086 3104 2409 2928 
Q 2733 2752 2944 2397 
Q 3155 2042 3155 1498 
Q 3155 960 2944 608 
Q 2733 256 2409 86 
Q 2086 -83 1734 -83 
z
M 1734 109 
Q 2221 109 2509 473 
Q 2797 838 2797 1498 
Q 2797 2163 2509 2534 
Q 2221 2906 1734 2906 
Q 1248 2906 960 2534 
Q 672 2163 672 1498 
Q 672 838 960 473 
Q 1248 109 1734 109 
z
" transform="scale(0.015625)"/>
      <path id="SourceSerifPro-Light-6c" d="M 211 0 
L 211 166 
L 800 230 
Q 806 486 809 790 
Q 813 1094 813 1344 
L 813 4410 
L 250 4435 
L 250 4602 
L 1056 4768 
L 1146 4717 
L 1126 3808 
L 1126 1344 
Q 1126 1094 1129 790 
Q 1133 486 1139 230 
L 1715 166 
L 1715 0 
L 211 0 
z
" transform="scale(0.015625)"/>
      <path id="SourceSerifPro-Light-6d" d="M 269 0 
L 269 166 
L 806 230 
Q 813 474 816 790 
Q 819 1107 819 1344 
L 819 1651 
Q 819 2246 800 2688 
L 237 2714 
L 237 2880 
L 1018 3085 
L 1094 3034 
L 1126 2445 
Q 1709 3104 2291 3104 
Q 2573 3104 2761 2953 
Q 2950 2803 3021 2458 
Q 3296 2784 3600 2944 
Q 3904 3104 4198 3104 
Q 4576 3104 4787 2854 
Q 4998 2605 4998 2010 
L 4998 1344 
Q 4998 1107 5001 790 
Q 5005 474 5011 230 
L 5504 166 
L 5504 0 
L 4134 0 
L 4134 166 
L 4672 230 
Q 4678 474 4681 790 
Q 4685 1107 4685 1344 
L 4685 1965 
Q 4685 2438 4528 2627 
Q 4371 2816 4096 2816 
Q 3878 2816 3619 2701 
Q 3360 2586 3053 2266 
Q 3059 2202 3062 2128 
Q 3066 2054 3066 1978 
L 3066 1344 
Q 3066 1107 3069 790 
Q 3072 474 3078 230 
L 3571 166 
L 3571 0 
L 2202 0 
L 2202 166 
L 2739 230 
Q 2746 474 2749 790 
Q 2752 1107 2752 1344 
L 2752 1958 
Q 2752 2432 2598 2624 
Q 2445 2816 2189 2816 
Q 1971 2816 1715 2697 
Q 1459 2579 1133 2234 
L 1133 1344 
Q 1133 1107 1136 790 
Q 1139 474 1146 230 
L 1638 166 
L 1638 0 
L 269 0 
z
" transform="scale(0.015625)"/>
     </defs>
     <use xlink:href="#SourceSerifPro-Light-64"/>
     <use xlink:href="#SourceSerifPro-Light-65" x="57.099991"/>
     <use xlink:href="#SourceSerifPro-Light-20" x="106.899979"/>
     <use xlink:href="#SourceSerifPro-Light-64" x="131.099976"/>
     <use xlink:href="#SourceSerifPro-Light-65" x="188.199966"/>
     <use xlink:href="#SourceSerifPro-Light-73" x="237.999954"/>
     <use xlink:href="#SourceSerifPro-Light-65" x="280.899948"/>
     <use xlink:href="#SourceSerifPro-Light-6e" x="330.699936"/>
     <use xlink:href="#SourceSerifPro-Light-76" x="391.09993"/>
     <use xlink:href="#SourceSerifPro-Light-6f" x="440.799927"/>
     <use xlink:href="#SourceSerifPro-Light-6c" x="494.999924"/>
     <use xlink:href="#SourceSerifPro-Light-76" x="524.999908"/>
     <use xlink:href="#SourceSerifPro-Light-69" x="574.699905"/>
     <use xlink:href="#SourceSerifPro-Light-6d" x="604.799896"/>
     <use xlink:href="#SourceSerifPro-Light-65" x="694.19989"/>
     <use xlink:href="#SourceSerifPro-Light-6e" x="743.999878"/>
     <use xlink:href="#SourceSerifPro-Light-74" x="804.399872"/>
     <use xlink:href="#SourceSerifPro-Light-6f" x="837.19986"/>
    </g>
   </g>
   <g id="text_23">
    <!-- É adequado -->
    <g transform="translate(181.337344 79.123359) scale(0.09 -0.09)">
     <defs>
      <path id="SourceSerifPro-Light-c9" d="M 339 4134 
L 339 4314 
L 3430 4314 
L 3488 3270 
L 3251 3270 
L 3130 4102 
L 1357 4102 
Q 1350 3667 1347 3216 
Q 1344 2765 1344 2291 
L 2490 2291 
L 2560 2906 
L 2752 2906 
L 2752 1472 
L 2560 1472 
L 2490 2086 
L 1344 2086 
Q 1344 1536 1347 1081 
Q 1350 627 1357 211 
L 3238 211 
L 3354 1043 
L 3590 1043 
L 3539 0 
L 339 0 
L 339 179 
L 992 230 
Q 998 666 998 1104 
Q 998 1542 998 1984 
L 998 2330 
Q 998 2771 998 3209 
Q 998 3648 992 4083 
L 339 4134 
z
M 1725 4755 
Q 1891 4902 2051 5049 
Q 2211 5197 2358 5331 
Q 2493 5453 2563 5497 
Q 2634 5542 2698 5542 
Q 2768 5542 2816 5504 
Q 2864 5466 2864 5395 
Q 2864 5325 2797 5261 
Q 2730 5197 2563 5101 
Q 2378 4992 2186 4877 
Q 1994 4762 1802 4653 
L 1725 4755 
z
" transform="scale(0.015625)"/>
      <path id="SourceSerifPro-Light-71" d="M 659 1472 
Q 659 813 947 483 
Q 1235 154 1664 154 
Q 1926 154 2144 269 
Q 2362 384 2579 646 
L 2579 2426 
Q 2355 2656 2147 2758 
Q 1939 2861 1709 2861 
Q 1421 2861 1184 2713 
Q 947 2566 803 2259 
Q 659 1952 659 1472 
z
M 1594 -83 
Q 1216 -83 928 112 
Q 640 307 480 659 
Q 320 1011 320 1466 
Q 320 1971 496 2336 
Q 672 2701 979 2902 
Q 1286 3104 1664 3104 
Q 1894 3104 2137 2992 
Q 2381 2880 2598 2618 
L 2803 3066 
L 2918 3027 
L 2899 2163 
L 2899 -205 
Q 2899 -480 2902 -761 
Q 2906 -1043 2912 -1325 
L 3469 -1389 
L 3469 -1555 
L 1958 -1555 
L 1958 -1389 
L 2579 -1325 
Q 2586 -1043 2589 -761 
Q 2592 -480 2592 -205 
L 2592 442 
Q 2374 160 2124 38 
Q 1875 -83 1594 -83 
z
" transform="scale(0.015625)"/>
      <path id="SourceSerifPro-Light-75" d="M 1574 -83 
Q 1152 -83 931 179 
Q 710 442 717 1101 
L 736 2758 
L 211 2822 
L 211 2995 
L 1005 3046 
L 1062 2976 
L 1037 2086 
L 1037 1139 
Q 1037 621 1200 413 
Q 1363 205 1677 205 
Q 1958 205 2224 349 
Q 2490 493 2726 768 
L 2739 2765 
L 2221 2822 
L 2221 2995 
L 3008 3046 
L 3066 2976 
L 3046 2086 
L 3046 224 
L 3526 166 
L 3526 0 
L 2752 -45 
L 2733 563 
Q 2496 269 2205 93 
Q 1914 -83 1574 -83 
z
" transform="scale(0.015625)"/>
     </defs>
     <use xlink:href="#SourceSerifPro-Light-c9"/>
     <use xlink:href="#SourceSerifPro-Light-20" x="60.199997"/>
     <use xlink:href="#SourceSerifPro-Light-61" x="84.399994"/>
     <use xlink:href="#SourceSerifPro-Light-64" x="134.999985"/>
     <use xlink:href="#SourceSerifPro-Light-65" x="192.099976"/>
     <use xlink:href="#SourceSerifPro-Light-71" x="241.899963"/>
     <use xlink:href="#SourceSerifPro-Light-75" x="296.899948"/>
     <use xlink:href="#SourceSerifPro-Light-61" x="356.399933"/>
     <use xlink:href="#SourceSerifPro-Light-64" x="406.999924"/>
     <use xlink:href="#SourceSerifPro-Light-6f" x="464.099915"/>
    </g>
   </g>
   <g id="text_24">
    <!-- É alto -->
    <g transform="translate(243.72 78.579141) scale(0.09 -0.09)">
     <use xlink:href="#SourceSerifPro-Light-c9"/>
     <use xlink:href="#SourceSerifPro-Light-20" x="60.199997"/>
     <use xlink:href="#SourceSerifPro-Light-61" x="84.399994"/>
     <use xlink:href="#SourceSerifPro-Light-6c" x="134.999985"/>
     <use xlink:href="#SourceSerifPro-Light-74" x="164.999969"/>
     <use xlink:href="#SourceSerifPro-Light-6f" x="197.799957"/>
    </g>
   </g>
   <g id="text_25">
    <!-- LISTENING -->
    <g transform="translate(1.12 609.284375) rotate(-90) scale(0.1 -0.1)">
     <defs>
      <path id="Oswald-Regular-47" d="M 1638 -64 
Q 1152 -64 861 144 
Q 570 352 438 749 
Q 307 1146 307 1702 
L 307 3437 
Q 307 4006 425 4406 
Q 544 4806 848 5017 
Q 1152 5229 1696 5229 
Q 2182 5229 2480 5065 
Q 2778 4902 2912 4566 
Q 3046 4230 3046 3718 
L 3046 3526 
L 2368 3526 
L 2368 3686 
Q 2368 4026 2323 4240 
Q 2278 4454 2140 4560 
Q 2003 4666 1709 4666 
Q 1389 4666 1245 4518 
Q 1101 4371 1065 4118 
Q 1030 3866 1030 3546 
L 1030 1626 
Q 1030 1254 1084 1004 
Q 1139 755 1292 633 
Q 1446 512 1728 512 
Q 2010 512 2163 646 
Q 2317 781 2374 1043 
Q 2432 1306 2432 1696 
L 2432 2054 
L 1773 2054 
L 1773 2566 
L 3085 2566 
L 3085 0 
L 2630 0 
L 2560 595 
Q 2458 307 2240 121 
Q 2022 -64 1638 -64 
z
" transform="scale(0.015625)"/>
     </defs>
     <use xlink:href="#Oswald-Regular-4c"/>
     <use xlink:href="#Oswald-Regular-49" x="39.699997"/>
     <use xlink:href="#Oswald-Regular-53" x="64.499985"/>
     <use xlink:href="#Oswald-Regular-54" x="111.799973"/>
     <use xlink:href="#Oswald-Regular-45" x="153.09996"/>
     <use xlink:href="#Oswald-Regular-4e" x="193.799957"/>
     <use xlink:href="#Oswald-Regular-49" x="246.599945"/>
     <use xlink:href="#Oswald-Regular-4e" x="271.399933"/>
     <use xlink:href="#Oswald-Regular-47" x="324.199921"/>
    </g>
   </g>
   <g id="text_26">
    <!-- FLUÊNCIA -->
    <g transform="translate(1.365313 507.204687) rotate(-90) scale(0.1 -0.1)">
     <defs>
      <path id="Oswald-Regular-46" d="M 403 0 
L 403 5184 
L 2406 5184 
L 2406 4666 
L 1126 4666 
L 1126 2938 
L 2118 2938 
L 2118 2426 
L 1126 2426 
L 1126 0 
L 403 0 
z
" transform="scale(0.015625)"/>
      <path id="Oswald-Regular-ca" d="M 403 0 
L 403 5184 
L 2413 5184 
L 2413 4646 
L 1126 4646 
L 1126 2931 
L 2170 2931 
L 2170 2419 
L 1126 2419 
L 1126 518 
L 2426 518 
L 2426 0 
L 403 0 
z
M 530 5536 
L 1080 6656 
L 1778 6656 
L 2334 5536 
L 1816 5536 
L 1426 6310 
L 1042 5536 
L 530 5536 
z
" transform="scale(0.015625)"/>
     </defs>
     <use xlink:href="#Oswald-Regular-46"/>
     <use xlink:href="#Oswald-Regular-4c" x="39.099991"/>
     <use xlink:href="#Oswald-Regular-55" x="78.799988"/>
     <use xlink:href="#Oswald-Regular-ca" x="133.099976"/>
     <use xlink:href="#Oswald-Regular-4e" x="173.799973"/>
     <use xlink:href="#Oswald-Regular-43" x="226.59996"/>
     <use xlink:href="#Oswald-Regular-49" x="278.099945"/>
     <use xlink:href="#Oswald-Regular-41" x="302.899933"/>
    </g>
   </g>
   <g id="text_27">
    <!-- ESCRITA -->
    <g transform="translate(1.12 353.735156) rotate(-90) scale(0.1 -0.1)">
     <use xlink:href="#Oswald-Regular-45"/>
     <use xlink:href="#Oswald-Regular-53" x="40.699997"/>
     <use xlink:href="#Oswald-Regular-43" x="87.999985"/>
     <use xlink:href="#Oswald-Regular-52" x="139.499969"/>
     <use xlink:href="#Oswald-Regular-49" x="191.399963"/>
     <use xlink:href="#Oswald-Regular-54" x="216.199951"/>
     <use xlink:href="#Oswald-Regular-41" x="257.499939"/>
    </g>
   </g>
   <g id="text_28">
    <!-- LEITURA -->
    <g transform="translate(1.12 177.095312) rotate(-90) scale(0.1 -0.1)">
     <use xlink:href="#Oswald-Regular-4c"/>
     <use xlink:href="#Oswald-Regular-45" x="39.699997"/>
     <use xlink:href="#Oswald-Regular-49" x="80.399994"/>
     <use xlink:href="#Oswald-Regular-54" x="105.199982"/>
     <use xlink:href="#Oswald-Regular-55" x="146.499969"/>
     <use xlink:href="#Oswald-Regular-52" x="200.799957"/>
     <use xlink:href="#Oswald-Regular-41" x="252.699951"/>
    </g>
   </g>
  </g>
 </g>
 <defs>
  <clipPath id="pbaa511bb6f">
   <rect x="93.78" y="86.4" width="181.44" height="554.4"/>
  </clipPath>
 </defs>
</svg>
